<?xml version="1.0" encoding="utf-8"?>
<!-- Generator: Adobe Illustrator 24.0.1, SVG Export Plug-In . SVG Version: 6.00 Build 0)  -->
<svg version="1.1" id="Layer_1" xmlns="http://www.w3.org/2000/svg" xmlns:xlink="http://www.w3.org/1999/xlink" x="0px" y="0px"
	 viewBox="0 0 22 22" style="enable-background:new 0 0 22 22;" xml:space="preserve">
<style type="text/css">
	.st0{fill:#666666;stroke:#666666;stroke-miterlimit:10;}
</style>
<g>
	<g>
		<path class="st0" d="M20.6,20.9H5.8c-0.2,0-0.3-0.1-0.3-0.3v-7.1c0-0.1,0.1-0.3,0.3-0.3s0.3,0.1,0.3,0.3v6.8h14.2V1.6H6.1v7.2
			C6.1,9,6,9.1,5.8,9.1S5.6,9,5.6,8.9V1.4c0-0.1,0.1-0.3,0.3-0.3h14.7c0.1,0,0.3,0.1,0.3,0.3v19.3C20.9,20.8,20.7,20.9,20.6,20.9z"
			/>
		<path class="st0" d="M20.6,21H5.8c-0.2,0-0.4-0.2-0.4-0.4v-7.1c0-0.2,0.2-0.4,0.4-0.4s0.4,0.2,0.4,0.4v6.7h14V1.7h-14v7.1
			c0,0.2-0.2,0.4-0.4,0.4S5.5,9.1,5.5,8.9V1.4C5.5,1.2,5.6,1,5.8,1h14.7C20.8,1,21,1.2,21,1.4v19.3C21,20.8,20.8,21,20.6,21z
			 M5.8,13.4c-0.1,0-0.2,0.1-0.2,0.2v7.1c0,0.1,0.1,0.2,0.2,0.2h14.7c0.1,0,0.2-0.1,0.2-0.2V1.4c0-0.1-0.1-0.2-0.2-0.2H5.8
			c-0.1,0-0.2,0.1-0.2,0.2v7.5C5.7,8.9,5.8,9,5.8,9S6,9,6,8.9V1.6c0-0.1,0-0.1,0.1-0.1h14.2c0.1,0,0.1,0,0.1,0.1v18.7
			c0,0.1,0,0.1-0.1,0.1H6.1c-0.1,0-0.1,0-0.1-0.1v-6.8C6,13.4,5.9,13.4,5.8,13.4z"/>
	</g>
	<g>
		<path class="st0" d="M12.9,11.5H1.4c-0.1,0-0.3-0.1-0.3-0.3c0-0.1,0.1-0.3,0.3-0.3h11.5c0.1,0,0.3,0.1,0.3,0.3S13,11.5,12.9,11.5z
			"/>
		<path class="st0" d="M12.9,11.6H1.4c-0.2,0-0.4-0.2-0.4-0.4s0.2-0.4,0.4-0.4h11.5c0.2,0,0.4,0.2,0.4,0.4S13.1,11.6,12.9,11.6z
			 M1.4,11c-0.1,0-0.2,0.1-0.2,0.2s0.1,0.2,0.2,0.2h11.5c0.1,0,0.2-0.1,0.2-0.2c0-0.1-0.1-0.2-0.2-0.2H1.4z"/>
	</g>
	<g>
		<path class="st0" d="M10.4,13.4c-0.1,0-0.2,0-0.2-0.1c-0.1-0.1-0.1-0.3,0.1-0.4l2.5-1.8l-2.5-1.8c-0.1-0.1-0.1-0.3-0.1-0.4
			c0.1-0.1,0.3-0.2,0.4-0.1l2.8,2c0.1,0.1,0.1,0.1,0.1,0.2s0,0.2-0.1,0.2l-2.8,2C10.5,13.4,10.5,13.4,10.4,13.4z"/>
		<path class="st0" d="M10.4,13.6c-0.1,0-0.2-0.1-0.3-0.1c-0.1-0.1-0.1-0.2-0.1-0.3c0-0.1,0.1-0.2,0.1-0.2l2.4-1.7l-2.4-1.7
			c-0.1-0.1-0.1-0.1-0.1-0.2c0-0.1,0-0.2,0.1-0.3c0.1-0.2,0.4-0.2,0.5-0.1l2.8,2c0.1,0.1,0.1,0.2,0.1,0.3s-0.1,0.2-0.1,0.3l-2.8,2
			C10.6,13.5,10.5,13.6,10.4,13.6z M10.4,9.1c-0.1,0-0.1,0-0.1,0.1c0,0,0,0.1,0,0.1s0,0.1,0.1,0.1l2.5,1.8c0,0,0,0.1,0,0.1
			s0,0.1,0,0.1L10.3,13c0,0-0.1,0.1-0.1,0.1c0,0,0,0.1,0,0.1c0.1,0.1,0.2,0.1,0.2,0l2.8-2c0,0,0.1-0.1,0.1-0.1c0-0.1,0-0.1-0.1-0.1
			L10.4,9.1C10.5,9.1,10.5,9.1,10.4,9.1z"/>
	</g>
</g>
</svg>
