<?xml version="1.0" encoding="utf-8"?>
<!-- Generator: Adobe Illustrator 24.0.1, SVG Export Plug-In . SVG Version: 6.00 Build 0)  -->
<svg version="1.1" id="Layer_1" xmlns="http://www.w3.org/2000/svg" xmlns:xlink="http://www.w3.org/1999/xlink" x="0px" y="0px"
	 viewBox="0 0 22 22" style="enable-background:new 0 0 22 22;" xml:space="preserve">
<style type="text/css">
	.st0{fill:#666666;stroke:#666666;stroke-miterlimit:10;}
</style>
<g>
	<g>
		<path class="st0" d="M18.1,20.6c0,0-0.1,0-0.1,0l-7-4.8l-7,4.8c-0.1,0-0.2,0.1-0.3,0s-0.1-0.1-0.1-0.2V1.6c0-0.1,0.1-0.3,0.3-0.3
			h14.3c0.1,0,0.3,0.1,0.3,0.3v18.7c0,0.1,0,0.2-0.1,0.2C18.2,20.6,18.2,20.6,18.1,20.6z M11,15.2c0.1,0,0.1,0,0.1,0.1l6.7,4.6v-18
			H4.1v18l6.7-4.6C10.9,15.3,10.9,15.2,11,15.2z"/>
		<path class="st0" d="M3.8,20.7c-0.1,0-0.1,0-0.2,0c-0.1-0.1-0.2-0.2-0.2-0.3V1.6c0-0.2,0.2-0.4,0.4-0.4h14.3
			c0.2,0,0.4,0.2,0.4,0.4v18.7c0,0.1-0.1,0.3-0.2,0.3c-0.1,0.1-0.3,0-0.4,0L11,15.9l-6.9,4.7C4,20.7,3.9,20.7,3.8,20.7z M11,15.7
			C11,15.7,11,15.7,11,15.7l7.1,4.8c0,0,0.1,0,0.2,0s0.1-0.1,0.1-0.1V1.6c0-0.1-0.1-0.2-0.2-0.2H3.8c-0.1,0-0.2,0.1-0.2,0.2v18.7
			c0,0.1,0,0.1,0.1,0.1c0,0,0.1,0,0.2,0L11,15.7C11,15.7,11,15.7,11,15.7z M17.9,20C17.9,20,17.8,19.9,17.9,20l-6.8-4.6
			c-0.1,0-0.1,0-0.2,0l-6.7,4.6c0,0-0.1,0-0.1,0c0,0-0.1,0-0.1-0.1V1.9c0,0,0-0.1,0.1-0.1h13.8c0,0,0.1,0,0.1,0.1v18
			C18,19.9,18,19.9,17.9,20C17.9,20,17.9,20,17.9,20z M11,15.1c0.1,0,0.1,0,0.2,0.1l6.6,4.5V2H4.2v17.7l6.6-4.5
			C10.9,15.2,10.9,15.1,11,15.1z"/>
	</g>
</g>
</svg>
