<?xml version="1.0" encoding="utf-8"?>
<!-- Generator: Adobe Illustrator 24.0.1, SVG Export Plug-In . SVG Version: 6.00 Build 0)  -->
<svg version="1.1" id="Layer_1" xmlns="http://www.w3.org/2000/svg" xmlns:xlink="http://www.w3.org/1999/xlink" x="0px" y="0px"
	 viewBox="0 0 230 44" style="enable-background:new 0 0 230 44;" xml:space="preserve">
<style type="text/css">
	.st0{enable-background:new    ;}
	.st1{fill:#222222;}
</style>
<g class="st0">
	<path class="st1" d="M2.79,7.75H16c3.06,0,5.77,0.57,8.14,1.72s4.2,2.77,5.51,4.87c1.3,2.1,1.96,4.56,1.96,7.38
		S30.96,27,29.65,29.1c-1.3,2.1-3.14,3.73-5.51,4.87s-5.08,1.72-8.14,1.72H2.79V7.75z M15.69,29.38c2.39,0,4.32-0.68,5.77-2.04
		c1.45-1.36,2.17-3.23,2.17-5.63c0-2.39-0.73-4.27-2.17-5.63c-1.45-1.36-3.37-2.04-5.77-2.04H10.7v15.33h4.99V29.38z"/>
	<path class="st1" d="M38.97,32.86c-2.3-2.26-3.45-5.47-3.45-9.62V7.75h7.9V23c0,4.47,1.77,6.71,5.31,6.71
		C52.24,29.7,54,27.47,54,23V7.75h7.78v15.48c0,4.15-1.15,7.36-3.45,9.62s-5.53,3.39-9.68,3.39S41.27,35.12,38.97,32.86z"/>
	<path class="st1" d="M67.13,7.75h13.21c3.06,0,5.77,0.57,8.14,1.72s4.2,2.77,5.51,4.87c1.3,2.1,1.96,4.56,1.96,7.38
		S95.3,27,93.99,29.1c-1.3,2.1-3.14,3.73-5.51,4.87s-5.08,1.72-8.14,1.72H67.13V7.75z M80.02,29.38c2.39,0,4.32-0.68,5.77-2.04
		c1.45-1.36,2.17-3.23,2.17-5.63c0-2.39-0.73-4.27-2.17-5.63c-1.45-1.36-3.37-2.04-5.77-2.04h-4.99v15.33h4.99V29.38z"/>
	<path class="st1" d="M118.41,30.26H106.6l-2.2,5.43h-8.06l12.33-27.94h7.78l12.37,27.94h-8.22L118.41,30.26z M116.1,24.43
		l-3.59-8.94l-3.59,8.94H116.1z"/>
</g>
<g class="st0">
	<path class="st1" d="M160.7,16.19h-7.09l-1.47,3.33h-1.96l6.04-13.33h1.89l6.06,13.33h-2L160.7,16.19z M160.04,14.66l-2.88-6.53
		l-2.88,6.53H160.04z"/>
	<path class="st1" d="M175.07,19.52l-2.88-4.1c-0.36,0.03-0.63,0.04-0.84,0.04h-3.29v4.06h-1.91V6.19h5.2
		c1.73,0,3.09,0.41,4.08,1.24s1.49,1.96,1.49,3.41c0,1.03-0.25,1.9-0.76,2.63c-0.51,0.72-1.23,1.25-2.17,1.58l3.16,4.48h-2.08V19.52
		z M174.06,13.06c0.63-0.52,0.95-1.26,0.95-2.23c0-0.96-0.32-1.7-0.95-2.22c-0.64-0.51-1.56-0.77-2.76-0.77h-3.24v6h3.24
		C172.5,13.84,173.42,13.58,174.06,13.06z"/>
	<path class="st1" d="M182.46,7.84h-4.57V6.19h11.03v1.66h-4.57v11.68h-1.89L182.46,7.84L182.46,7.84z"/>
</g>
<g class="st0">
	<path class="st1" d="M154.56,36.93c-1.07-0.59-1.92-1.4-2.52-2.44c-0.61-1.03-0.91-2.2-0.91-3.5c0-1.29,0.3-2.46,0.91-3.5
		s1.45-1.85,2.53-2.44s2.29-0.89,3.62-0.89c1.04,0,1.99,0.17,2.86,0.52c0.86,0.35,1.6,0.87,2.21,1.55l-1.24,1.2
		c-1-1.05-2.25-1.58-3.75-1.58c-0.99,0-1.89,0.22-2.69,0.67s-1.43,1.06-1.88,1.84c-0.45,0.78-0.68,1.65-0.68,2.62
		c0,0.97,0.22,1.84,0.68,2.62c0.45,0.78,1.08,1.39,1.88,1.84s1.7,0.67,2.69,0.67c1.49,0,2.74-0.53,3.75-1.6l1.24,1.2
		c-0.61,0.69-1.35,1.21-2.22,1.56c-0.87,0.36-1.83,0.53-2.87,0.53C156.84,37.81,155.63,37.52,154.56,36.93z"/>
	<path class="st1" d="M175.66,36v1.66h-9.68V24.33h9.41v1.66h-7.5v4.1h6.69v1.62h-6.69V36H175.66z"/>
	<path class="st1" d="M190.21,24.33v13.33h-1.56l-8-9.94v9.94h-1.91V24.33h1.56l8,9.94v-9.94C188.3,24.33,190.21,24.33,190.21,24.33
		z"/>
	<path class="st1" d="M196.86,25.98h-4.57v-1.66h11.03v1.66h-4.57v11.68h-1.89L196.86,25.98L196.86,25.98z"/>
	<path class="st1" d="M215.07,36v1.66h-9.68V24.33h9.41v1.66h-7.5v4.1h6.69v1.62h-6.69V36H215.07z"/>
	<path class="st1" d="M227.07,37.66l-2.88-4.1c-0.36,0.03-0.63,0.04-0.84,0.04h-3.29v4.06h-1.91V24.33h5.2
		c1.73,0,3.09,0.41,4.08,1.24s1.49,1.96,1.49,3.41c0,1.03-0.25,1.91-0.76,2.63s-1.23,1.25-2.17,1.58l3.16,4.48h-2.08V37.66z
		 M226.06,31.2c0.63-0.52,0.95-1.26,0.95-2.23c0-0.96-0.32-1.7-0.95-2.22c-0.64-0.51-1.56-0.77-2.76-0.77h-3.24v6h3.24
		C224.5,31.98,225.42,31.72,226.06,31.2z"/>
</g>
<rect x="137.75" class="st1" width="2" height="44"/>
</svg>
